HIERARCHY
ROOT mixamorig:Hips
{
	OFFSET 0.000000 201.639420 0.000000
	CHANNELS 6 Xposition Yposition Zposition Xrotation Yrotation Zrotation
	JOINT mixamorig:Spine
	{
		OFFSET 0.006200 19.524994 -2.481800
		CHANNELS 3 Xrotation Yrotation Zrotation
		JOINT mixamorig:Spine1
		{
			OFFSET -0.000900 22.835007 -2.825400
			CHANNELS 3 Xrotation Yrotation Zrotation
			JOINT mixamorig:Spine2
			{
				OFFSET -0.020600 26.552490 -3.193300
				CHANNELS 3 Xrotation Yrotation Zrotation
				JOINT mixamorig:Neck
				{
					OFFSET -0.060000 30.701813 1.352200
					CHANNELS 3 Xrotation Yrotation Zrotation
					JOINT mixamorig:Head
					{
						OFFSET -0.087200 22.547607 3.670900
						CHANNELS 3 Xrotation Yrotation Zrotation
						JOINT mixamorig:HeadTop_End
						{
							OFFSET -0.830600 40.355194 7.893500
							CHANNELS 3 Xrotation Yrotation Zrotation
							End Site
							{
								OFFSET 0.000000 30.592346 0.000000
							}
						}
						JOINT mixamorig:RightEye
						{
							OFFSET -6.302100 18.118591 16.197100
							CHANNELS 3 Xrotation Yrotation Zrotation
							End Site
							{
								OFFSET 0.000000 30.592346 0.000000
							}
						}
						JOINT mixamorig:LeftEye
						{
							OFFSET 6.741500 18.382690 16.401899
							CHANNELS 3 Xrotation Yrotation Zrotation
							End Site
							{
								OFFSET 0.000000 30.592346 0.000000
							}
						}
					}
				}
				JOINT mixamorig:LeftShoulder
				{
					OFFSET 11.924900 18.230499 1.425400
					CHANNELS 3 Xrotation Yrotation Zrotation
					JOINT mixamorig:LeftArm
					{
						OFFSET 25.435989 -0.697632 -5.229300
						CHANNELS 3 Xrotation Yrotation Zrotation
						JOINT mixamorig:LeftForeArm
						{
							OFFSET 54.684776 0.000000 0.000000
							CHANNELS 3 Xrotation Yrotation Zrotation
							JOINT mixamorig:LeftHand
							{
								OFFSET 55.098175 0.000000 0.000000
								CHANNELS 3 Xrotation Yrotation Zrotation
								JOINT mixamorig:LeftHandMiddle1
								{
									OFFSET 23.369751 0.000000 0.000000
									CHANNELS 3 Xrotation Yrotation Zrotation
									JOINT mixamorig:LeftHandMiddle2
									{
										OFFSET 6.378677 0.000000 0.000000
										CHANNELS 3 Xrotation Yrotation Zrotation
										JOINT mixamorig:LeftHandMiddle3
										{
											OFFSET 6.148331 0.000000 0.000000
											CHANNELS 3 Xrotation Yrotation Zrotation
											JOINT mixamorig:LeftHandMiddle4
											{
												OFFSET 6.582504 0.000000 0.000000
												CHANNELS 3 Xrotation Yrotation Zrotation
												End Site
												{
													OFFSET -1.168900 6.395691 1.028606
												}
											}
										}
									}
								}
								JOINT mixamorig:LeftHandThumb1
								{
									OFFSET 7.235672 -3.848206 5.434273
									CHANNELS 3 Xrotation Yrotation Zrotation
									JOINT mixamorig:LeftHandThumb2
									{
										OFFSET 6.568451 -3.792297 3.792300
										CHANNELS 3 Xrotation Yrotation Zrotation
										JOINT mixamorig:LeftHandThumb3
										{
											OFFSET 6.063080 -3.500519 3.500518
											CHANNELS 3 Xrotation Yrotation Zrotation
											JOINT mixamorig:LeftHandThumb4
											{
												OFFSET 4.793182 -2.767334 2.767349
												CHANNELS 3 Xrotation Yrotation Zrotation
												End Site
												{
													OFFSET 0.101639 6.054260 1.275483
												}
											}
										}
									}
								}
								JOINT mixamorig:LeftHandIndex1
								{
									OFFSET 23.101074 -0.309540 4.992809
									CHANNELS 3 Xrotation Yrotation Zrotation
									JOINT mixamorig:LeftHandIndex2
									{
										OFFSET 6.226883 0.000000 0.000000
										CHANNELS 3 Xrotation Yrotation Zrotation
										JOINT mixamorig:LeftHandIndex3
										{
											OFFSET 6.094330 0.000000 0.000000
											CHANNELS 3 Xrotation Yrotation Zrotation
											JOINT mixamorig:LeftHandIndex4
											{
												OFFSET 5.482605 0.000000 0.000000
												CHANNELS 3 Xrotation Yrotation Zrotation
												End Site
												{
													OFFSET -1.427902 5.233032 0.797164
												}
											}
										}
									}
								}
								JOINT mixamorig:LeftHandRing1
								{
									OFFSET 22.299240 0.021149 -3.964172
									CHANNELS 3 Xrotation Yrotation Zrotation
									JOINT mixamorig:LeftHandRing2
									{
										OFFSET 6.321869 0.000000 0.000000
										CHANNELS 3 Xrotation Yrotation Zrotation
										JOINT mixamorig:LeftHandRing3
										{
											OFFSET 5.899796 0.000000 0.000000
											CHANNELS 3 Xrotation Yrotation Zrotation
											JOINT mixamorig:LeftHandRing4
											{
												OFFSET 6.517899 0.000000 0.000000
												CHANNELS 3 Xrotation Yrotation Zrotation
												End Site
												{
													OFFSET -1.637299 6.232208 0.980890
												}
											}
										}
									}
								}
								JOINT mixamorig:LeftHandPinky1
								{
									OFFSET 20.463791 -0.302338 -8.562233
									CHANNELS 3 Xrotation Yrotation Zrotation
									JOINT mixamorig:LeftHandPinky2
									{
										OFFSET 6.908646 0.000000 0.000000
										CHANNELS 3 Xrotation Yrotation Zrotation
										JOINT mixamorig:LeftHandPinky3
										{
											OFFSET 4.622849 0.000000 0.000000
											CHANNELS 3 Xrotation Yrotation Zrotation
											JOINT mixamorig:LeftHandPinky4
											{
												OFFSET 5.216080 0.000000 0.000000
												CHANNELS 3 Xrotation Yrotation Zrotation
												End Site
												{
													OFFSET -0.606308 5.116241 0.814926
												}
											}
										}
									}
								}
							}
						}
					}
				}
				JOINT mixamorig:RightShoulder
				{
					OFFSET -12.001300 18.284088 1.348900
					CHANNELS 3 Xrotation Yrotation Zrotation
					JOINT mixamorig:RightArm
					{
						OFFSET -25.308500 -0.751312 -5.164599
						CHANNELS 3 Xrotation Yrotation Zrotation
						JOINT mixamorig:RightForeArm
						{
							OFFSET -54.684429 0.000000 0.000000
							CHANNELS 3 Xrotation Yrotation Zrotation
							JOINT mixamorig:RightHand
							{
								OFFSET -55.150291 0.000000 0.000000
								CHANNELS 3 Xrotation Yrotation Zrotation
								JOINT mixamorig:RightHandMiddle1
								{
									OFFSET -23.317566 0.000000 0.000000
									CHANNELS 3 Xrotation Yrotation Zrotation
									JOINT mixamorig:RightHandMiddle2
									{
										OFFSET -6.378403 0.000000 0.000000
										CHANNELS 3 Xrotation Yrotation Zrotation
										JOINT mixamorig:RightHandMiddle3
										{
											OFFSET -6.148193 0.000000 0.000000
											CHANNELS 3 Xrotation Yrotation Zrotation
											JOINT mixamorig:RightHandMiddle4
											{
												OFFSET -6.583389 0.000000 0.000000
												CHANNELS 3 Xrotation Yrotation Zrotation
												End Site
												{
													OFFSET 1.171692 6.395905 1.029786
												}
											}
										}
									}
								}
								JOINT mixamorig:RightHandThumb1
								{
									OFFSET -7.190521 -3.860474 5.435846
									CHANNELS 3 Xrotation Yrotation Zrotation
									JOINT mixamorig:RightHandThumb2
									{
										OFFSET -6.567429 -3.791718 3.791708
										CHANNELS 3 Xrotation Yrotation Zrotation
										JOINT mixamorig:RightHandThumb3
										{
											OFFSET -6.062469 -3.500153 3.500166
											CHANNELS 3 Xrotation Yrotation Zrotation
											JOINT mixamorig:RightHandThumb4
											{
												OFFSET -4.792618 -2.767029 2.767022
												CHANNELS 3 Xrotation Yrotation Zrotation
												End Site
												{
													OFFSET -0.100327 6.053253 1.276754
												}
											}
										}
									}
								}
								JOINT mixamorig:RightHandIndex1
								{
									OFFSET -23.048981 -0.310791 4.992554
									CHANNELS 3 Xrotation Yrotation Zrotation
									JOINT mixamorig:RightHandIndex2
									{
										OFFSET -6.227539 0.000000 0.000000
										CHANNELS 3 Xrotation Yrotation Zrotation
										JOINT mixamorig:RightHandIndex3
										{
											OFFSET -6.095047 0.000000 0.000000
											CHANNELS 3 Xrotation Yrotation Zrotation
											JOINT mixamorig:RightHandIndex4
											{
												OFFSET -5.484772 0.000000 0.000000
												CHANNELS 3 Xrotation Yrotation Zrotation
												End Site
												{
													OFFSET 1.420593 5.237305 0.797056
												}
											}
										}
									}
								}
								JOINT mixamorig:RightHandRing1
								{
									OFFSET -22.246323 0.020569 -3.963762
									CHANNELS 3 Xrotation Yrotation Zrotation
									JOINT mixamorig:RightHandRing2
									{
										OFFSET -6.322128 0.000000 0.000000
										CHANNELS 3 Xrotation Yrotation Zrotation
										JOINT mixamorig:RightHandRing3
										{
											OFFSET -5.900024 0.000000 0.000000
											CHANNELS 3 Xrotation Yrotation Zrotation
											JOINT mixamorig:RightHandRing4
											{
												OFFSET -6.518356 0.000000 0.000000
												CHANNELS 3 Xrotation Yrotation Zrotation
												End Site
												{
													OFFSET 1.636398 6.232697 0.982186
												}
											}
										}
									}
								}
								JOINT mixamorig:RightHandPinky1
								{
									OFFSET -20.411011 -0.303314 -8.561701
									CHANNELS 3 Xrotation Yrotation Zrotation
									JOINT mixamorig:RightHandPinky2
									{
										OFFSET -6.907349 0.000000 0.000000
										CHANNELS 3 Xrotation Yrotation Zrotation
										JOINT mixamorig:RightHandPinky3
										{
											OFFSET -4.623840 0.000000 0.000000
											CHANNELS 3 Xrotation Yrotation Zrotation
											JOINT mixamorig:RightHandPinky4
											{
												OFFSET -5.218353 0.000000 0.000000
												CHANNELS 3 Xrotation Yrotation Zrotation
												End Site
												{
													OFFSET 0.602097 5.118835 0.816273
												}
											}
										}
									}
								}
							}
						}
					}
				}
			}
		}
	}
	JOINT mixamorig:LeftUpLeg
	{
		OFFSET 18.168400 -13.561905 -0.039000
		CHANNELS 3 Xrotation Yrotation Zrotation
		JOINT mixamorig:LeftLeg
		{
			OFFSET 0.577358 -80.825211 -3.695000
			CHANNELS 3 Xrotation Yrotation Zrotation
			JOINT mixamorig:LeftFoot
			{
				OFFSET -0.577356 -83.370262 -6.520700
				CHANNELS 3 Xrotation Yrotation Zrotation
				JOINT mixamorig:LeftToeBase
				{
					OFFSET 0.750401 -20.798306 25.135401
					CHANNELS 3 Xrotation Yrotation Zrotation
					JOINT mixamorig:LeftToe_End
					{
						OFFSET -0.000500 0.001200 19.917799
						CHANNELS 3 Xrotation Yrotation Zrotation
						End Site
						{
							OFFSET 0.000000 19.917805 0.000000
						}
					}
				}
			}
		}
	}
	JOINT mixamorig:RightUpLeg
	{
		OFFSET -18.162500 -13.585098 -0.041000
		CHANNELS 3 Xrotation Yrotation Zrotation
		JOINT mixamorig:RightLeg
		{
			OFFSET -0.595024 -80.945297 -3.631900
			CHANNELS 3 Xrotation Yrotation Zrotation
			JOINT mixamorig:RightFoot
			{
				OFFSET 0.595024 -83.218193 -6.561200
				CHANNELS 3 Xrotation Yrotation Zrotation
				JOINT mixamorig:RightToeBase
				{
					OFFSET -0.753601 -20.807106 25.115000
					CHANNELS 3 Xrotation Yrotation Zrotation
					JOINT mixamorig:RightToe_End
					{
						OFFSET 0.000299 0.001700 19.918200
						CHANNELS 3 Xrotation Yrotation Zrotation
						End Site
						{
							OFFSET 0.000000 19.918203 0.000000
						}
					}
				}
			}
		}
	}
}
MOTION
Frames: 5
Frame Time: 0.033333
0.625545 200.006775 0.069757 -7.289927 -12.559628 -1.819270 1.903131 1.318184 3.557784 -1.252392 -0.112319 3.820026 -1.274942 -0.107436 3.819946 4.010988 0.354765 2.313449 -5.924443 6.300811 -2.644921 -0.000001 0.000000 0.000001 -0.000001 0.000000 0.000001 -0.000001 0.000000 0.000001 1.354962 -15.963486 -9.439279 -7.331875 -3.222543 -76.419633 -0.000009 -5.378685 -0.000001 -33.734472 -8.911683 -0.824984 -0.065729 1.076600 -4.927116 0.221571 1.597505 -15.792181 0.250964 1.697946 -16.814148 0.000001 -0.000002 0.000000 -0.234415 -1.010617 2.614652 13.104631 26.364976 12.659925 -12.744955 2.008958 7.981362 -0.000001 0.000000 -0.000002 0.437446 -3.284724 0.971044 0.232824 1.636763 -16.190996 0.042072 0.701612 -6.863286 -0.000000 0.000001 -0.000000 -0.153200 2.184519 -13.849906 0.319720 1.910631 -18.997650 0.228717 1.622526 -16.046360 0.000001 -0.000001 -0.000001 -1.552010 6.263851 -26.487569 0.223186 1.603186 -15.849859 0.197333 1.509173 -14.897727 -0.000001 0.000000 0.000001 1.587676 16.806744 12.591021 4.201311 29.934602 56.332866 -0.000004 10.995250 0.000006 -16.765741 6.331470 4.438265 0.055025 -4.960930 0.050496 0.183649 -1.296257 16.127159 0.195258 -1.335751 16.632711 0.000005 -0.000002 0.000003 -3.076168 -7.471926 -11.680727 15.284333 -30.047396 -9.041116 -13.231105 -1.653632 -10.034920 0.000000 -0.000001 0.000002 2.307813 2.128816 -9.758818 0.158978 -1.207669 14.997664 0.020954 -0.441739 5.430910 0.000003 -0.000001 -0.000001 0.513168 -7.366059 5.281250 0.282964 -1.600154 20.055095 0.183698 -1.296391 16.129000 -0.000002 0.000001 0.000002 -1.001010 -8.963276 4.536051 0.168230 -1.241700 15.430804 0.158969 -1.207657 14.997603 -0.000002 0.000001 0.000002 -6.199538 14.887893 8.004368 11.663241 9.834522 4.172234 1.326725 0.447900 -7.806583 -4.808516 0.000003 -0.000001 0.000000 0.000001 0.000000 -2.092282 -10.765111 -1.897438 14.365838 -5.865216 -1.797452 -5.322446 2.192298 2.710142 -7.705160 -0.000005 -0.000001 -0.000000 0.000000 -0.000000 
0.564888 199.962906 0.092777 -7.264909 -12.390705 -1.897153 1.987370 1.380656 3.559405 -1.114651 -0.005081 3.803697 -1.137799 0.000393 3.802522 3.779947 0.274208 2.241941 -5.680570 5.795389 -2.606576 -0.000001 0.000000 -0.000000 -0.000001 0.000000 -0.000000 -0.000001 0.000000 -0.000000 1.355371 -16.283837 -9.572905 -6.101487 -6.453406 -77.293262 0.000001 -0.593909 0.000002 -34.405268 -5.295406 -2.783798 -0.120274 0.891516 -6.026331 0.227949 1.619863 -16.019266 0.257821 1.720471 -17.044225 0.000002 -0.000001 -0.000001 -0.353027 -3.083374 1.564034 13.452224 26.569777 11.524176 -12.476272 1.624219 7.682667 0.000000 0.000000 0.000001 0.132347 -3.394616 -0.606428 0.231477 1.632080 -16.143461 0.041498 0.696790 -6.815891 -0.000000 -0.000004 -0.000001 -0.164039 2.188021 -14.247592 0.323588 1.921825 -19.113332 0.232021 1.633974 -16.162666 0.000001 0.000000 0.000001 -1.767290 5.832389 -24.377760 0.230203 1.627685 -16.098665 0.203957 1.533873 -15.147413 0.000000 -0.000000 -0.000003 1.526254 17.805446 12.921275 6.256499 27.204596 56.469419 -0.000001 7.021835 0.000012 -18.149233 3.027988 6.895034 0.103362 -4.465662 1.419777 0.187030 -1.307855 16.275547 0.199076 -1.348428 16.795246 0.000001 -0.000002 0.000001 -3.132828 -6.690579 -11.211658 15.064074 -30.046381 -9.645497 -13.435127 -1.821674 -10.306305 -0.000001 -0.000000 -0.000001 2.244645 2.271217 -8.154302 0.163746 -1.225317 15.222449 0.022683 -0.459744 5.652839 0.000004 -0.000001 0.000000 0.538790 -6.741352 6.528678 0.285558 -1.607252 20.147794 0.185642 -1.303106 16.214924 -0.000002 0.000001 0.000002 -0.697293 -8.395082 6.358484 0.169717 -1.247073 15.499279 0.158789 -1.206947 14.988579 0.000002 -0.000000 -0.000000 -6.441645 14.963613 8.175858 11.949552 9.566236 4.182430 1.202690 0.433350 -7.792541 -4.820920 0.000001 -0.000001 0.000000 -0.000000 0.000000 -2.071811 -10.722702 -1.733796 14.405204 -5.853088 -1.834975 -5.373664 1.947175 2.706381 -7.714168 0.000000 -0.000000 -0.000000 -0.000002 -0.000000 
0.499398 199.911331 0.123775 -7.162311 -12.142139 -1.989210 2.099985 1.417664 3.574937 -0.932977 0.056870 3.797794 -0.956826 0.063492 3.798558 3.360947 0.205572 2.185761 -5.694494 5.351317 -2.553723 -0.000001 -0.000001 0.000001 -0.000001 -0.000001 0.000001 -0.000001 -0.000001 0.000001 1.373580 -16.867594 -9.661676 -4.694817 -7.930094 -77.828756 0.000000 0.000003 0.000002 -30.106743 -0.052544 -5.006654 -0.201270 1.002593 -8.531816 0.234573 1.642744 -16.251913 0.264906 1.743398 -17.278541 -0.000000 0.000000 -0.000001 0.215358 -3.591950 0.799955 13.245677 26.446373 12.197806 -12.599247 1.826251 7.779464 -0.000001 -0.000001 0.000001 -0.162200 -3.084841 -3.484982 0.233906 1.640480 -16.228857 0.042540 0.705433 -6.900907 0.000000 0.000001 0.000001 -0.179600 2.256382 -15.350157 0.331458 1.944377 -19.346685 0.238746 1.656993 -16.396878 0.000001 0.000000 -0.000001 -1.885915 5.566615 -23.430619 0.233968 1.640669 -16.230734 0.207527 1.547008 -15.280301 0.000002 0.000000 0.000005 1.513234 18.562723 12.987210 7.255195 23.532116 57.118017 0.000007 4.005676 -0.000003 -14.669402 -3.674943 9.894671 0.125632 -3.972080 2.774485 0.189418 -1.316031 16.380011 0.201857 -1.357633 16.913514 0.000005 -0.000002 0.000000 -3.137502 -5.846650 -10.644263 14.827079 -30.042283 -10.296076 -13.644686 -1.998445 -10.568950 -0.000002 -0.000004 -0.000005 2.157020 2.407646 -6.526906 0.168257 -1.241774 15.431832 0.024404 -0.476688 5.862032 0.000001 -0.000000 -0.000002 0.541580 -6.137398 7.827122 0.288126 -1.614254 20.239480 0.187699 -1.310131 16.304652 0.000001 0.000000 0.000002 -0.416168 -7.821490 8.314781 0.171334 -1.252890 15.573538 0.158958 -1.207595 14.996746 0.000000 0.000001 -0.000000 -6.824379 15.042464 8.395757 12.300497 9.200977 4.193184 1.051634 0.424404 -7.755641 -4.845802 -0.000007 0.000000 -0.000000 0.000000 0.000000 -2.101730 -10.666208 -1.513216 14.426346 -5.841958 -1.880244 -5.418200 1.601803 2.699969 -7.725900 -0.000003 -0.000001 -0.000000 0.000000 0.000000 
0.456718 199.872971 0.181129 -6.926261 -11.804969 -2.057853 2.240697 1.422740 3.583673 -0.713373 0.066583 3.779639 -0.737614 0.074430 3.781675 2.790999 0.144810 2.197593 -6.367675 4.979907 -2.400295 -0.000000 0.000000 0.000000 -0.000000 0.000000 0.000000 -0.000000 0.000000 0.000000 1.386466 -17.349708 -9.744490 -2.746806 -8.485837 -77.970318 -0.000001 0.000001 -0.000001 -24.042042 3.946988 -7.710096 -0.242182 1.241402 -10.573284 0.239567 1.659777 -16.425184 0.270203 1.760333 -17.451839 -0.000002 -0.000001 0.000002 0.151893 -2.092016 1.646708 12.776982 26.155337 13.758892 -12.892781 2.298492 8.019164 -0.000001 0.000001 -0.000000 -0.207088 -2.658665 -5.324128 0.239942 1.661054 -16.438257 0.045144 0.726671 -7.109707 -0.000003 0.000001 -0.000003 -0.176526 2.426048 -16.824590 0.340574 1.970139 -19.613650 0.246456 1.682935 -16.661198 -0.000000 -0.000001 0.000002 -1.888578 5.539982 -23.998382 0.235962 1.647511 -16.300294 0.209436 1.553963 -15.350756 -0.000001 -0.000000 0.000001 1.554210 18.762811 12.797302 7.824691 20.226839 58.027013 0.000003 1.850354 -0.000018 -7.640227 -10.071766 13.426666 0.123324 -3.492193 4.118966 0.190974 -1.321359 16.448195 0.203839 -1.364110 16.996622 0.000001 -0.000001 0.000001 -3.107377 -4.972928 -9.999395 14.574903 -30.034077 -10.989055 -13.860605 -2.183692 -10.825554 -0.000005 0.000000 -0.000002 2.043976 2.527678 -4.884680 0.172523 -1.257107 15.627353 0.026080 -0.492725 6.059942 0.000002 -0.000001 0.000002 0.522207 -5.564956 9.167024 0.290624 -1.620990 20.327671 0.189802 -1.317329 16.396791 -0.000002 -0.000002 -0.000000 -0.166988 -7.251235 10.377634 0.173064 -1.259070 15.652342 0.159425 -1.209359 15.019268 0.000002 0.000003 0.000001 -7.353286 15.081783 8.608122 12.650438 8.776972 4.204015 0.916217 0.420556 -7.701689 -4.866505 0.000001 -0.000000 0.000000 -0.000001 -0.000000 -2.213185 -10.595146 -1.264413 14.370914 -5.828436 -1.941484 -5.425685 1.150932 2.702982 -7.727747 0.000002 0.000002 -0.000000 0.000000 -0.000000 
0.447549 199.874481 0.239374 -6.558542 -11.396229 -2.087922 2.375617 1.398999 3.555920 -0.506350 0.032529 3.713917 -0.530487 0.042252 3.716066 2.273520 0.084881 2.303372 -7.768579 4.642760 -2.056449 -0.000001 0.000001 -0.000000 -0.000001 0.000001 -0.000000 -0.000001 0.000001 -0.000000 1.373559 -17.444021 -9.874464 -0.069157 -9.072345 -77.642039 0.000003 -0.000007 -0.000003 -21.544616 4.829063 -9.060236 -0.240762 1.432921 -11.485497 0.242726 1.670452 -16.533926 0.273533 1.770884 -17.559913 -0.000000 -0.000000 -0.000001 -1.368033 -0.086868 3.873428 12.580997 26.029306 14.426502 -13.034841 2.510969 8.155301 -0.000001 0.000002 -0.000001 -0.100552 -2.421081 -5.568982 0.245827 1.680850 -16.639903 0.047733 0.747119 -7.310880 0.000000 0.000000 -0.000000 -0.145522 2.645705 -18.068010 0.348502 1.992231 -19.842868 0.253023 1.704719 -16.883415 -0.000002 -0.000001 -0.000001 -1.825116 5.614566 -24.950510 0.239278 1.658791 -16.415234 0.212588 1.565406 -15.466559 -0.000001 -0.000002 0.000002 1.588145 18.299470 12.626455 9.029464 18.633904 58.458339 -0.000006 1.159584 -0.000015 -2.202778 -13.018896 15.559987 0.099159 -3.041637 5.467488 0.191956 -1.324644 16.490312 0.205273 -1.368772 17.056627 0.000000 0.000001 -0.000001 -3.057347 -4.104755 -9.297802 14.307587 -30.020502 -11.723817 -14.084635 -2.378055 -11.079701 0.000000 0.000001 0.000001 1.905122 2.617837 -3.230178 0.176555 -1.271455 15.810361 0.027731 -0.507980 6.248345 -0.000001 -0.000001 -0.000002 0.483534 -5.037623 10.542313 0.292939 -1.627224 20.409384 0.191948 -1.324588 16.489847 0.000001 0.000003 -0.000005 0.043536 -6.695974 12.520587 0.174881 -1.265512 15.734418 0.160141 -1.212003 15.052967 -0.000001 -0.000001 -0.000002 -7.966426 15.052951 8.777391 12.894122 8.346671 4.204397 0.875480 0.418905 -7.665045 -4.865175 -0.000003 0.000002 0.000000 -0.000000 -0.000000 -2.373061 -10.510827 -1.001587 14.142894 -5.805220 -2.022152 -5.337320 0.614391 2.711740 -7.705528 -0.000004 0.000000 -0.000001 -0.000001 -0.000000 
